<?xml version="1.0" encoding="UTF-8" standalone="no"?> <!-- Created with Vectornator for iOS (http://vectornator.io/) --><!DOCTYPE svg PUBLIC "-//W3C//DTD SVG 1.1//EN" "http://www.w3.org/Graphics/SVG/1.1/DTD/svg11.dtd">
<svg height="100%" style="fill-rule:evenodd;clip-rule:evenodd;stroke-linecap:round;stroke-linejoin:round;" xmlns:xlink="http://www.w3.org/1999/xlink" xmlns="http://www.w3.org/2000/svg" xml:space="preserve" width="100%" xmlns:vectornator="http://vectornator.io" version="1.1" viewBox="0 0 1920 1080">
<metadata>
<vectornator:setting key="DimensionsVisible" value="1"/>
<vectornator:setting key="SnapToGrid" value="0"/>
<vectornator:setting key="SnapToPoints" value="0"/>
<vectornator:setting key="GuidesVisible" value="1"/>
<vectornator:setting key="RulersVisible" value="1"/>
<vectornator:setting key="SnapToEdges" value="0"/>
<vectornator:setting key="DisplayWhiteBackground" value="0"/>
<vectornator:setting key="SnapToGuides" value="1"/>
<vectornator:setting key="GridSpacing" value="36"/>
<vectornator:setting key="Units" value="Pixels"/>
<vectornator:setting key="DynamicGuides" value="0"/>
<vectornator:setting key="New" value="1"/>
</metadata>
<defs/>
<g id="Layer 2" vectornator:layerName="Layer 2">
<path stroke="#000000" stroke-opacity="0.106587" stroke-width="7.13" d="M-45.8306-65.9713L1942.46-65.9713C1951.19-65.9713+1958.27-58.8897+1958.27-50.1542L1958.27+1107.65C1958.27+1116.38+1951.19+1123.46+1942.46+1123.46L-45.8306+1123.46C-54.5661+1123.46-61.6477+1116.38-61.6477+1107.65L-61.6477-50.1542C-61.6477-58.8897-54.5661-65.9713-45.8306-65.9713Z" fill="#000000" stroke-linecap="butt" fill-opacity="0.357939" opacity="1" stroke-linejoin="miter"/>
</g>
<g id="Layer 1" vectornator:layerName="Layer 1">
<path stroke="#000000" stroke-opacity="0.425974" stroke-width="7.13" d="M191.55+422.1L254.55+422.1C264.35+422.1+273.7+423.05+282.6+424.95C291.5+426.85+299.4+430.05+306.3+434.55C313.2+439.05+318.7+445.05+322.8+452.55C326.9+460.05+328.95+469.3+328.95+480.3C328.95+491.9+326.75+501.5+322.35+509.1C317.95+516.7+312.3+522.7+305.4+527.1C298.5+531.5+290.95+534.6+282.75+536.4C274.55+538.2+266.75+539.1+259.35+539.1L216.75+539.1L216.75+634.5L191.55+634.5L191.55+422.1ZM216.75+515.7L259.35+515.7C271.95+515.7+282.2+512.85+290.1+507.15C298+501.45+301.95+492.6+301.95+480.6C301.95+468.6+298+459.75+290.1+454.05C282.2+448.35+271.95+445.5+259.35+445.5L216.75+445.5L216.75+515.7Z" fill="#000000" stroke-linecap="butt" fill-opacity="0.357939" opacity="1" stroke-linejoin="miter"/>
<path stroke="#000000" stroke-opacity="0.425974" stroke-width="7.13" d="M367.35+407.7L390.75+407.7L390.75+634.5L367.35+634.5L367.35+407.7Z" fill="#000000" stroke-linecap="butt" fill-opacity="0.357939" opacity="1" stroke-linejoin="miter"/>
<path stroke="#000000" stroke-opacity="0.425974" stroke-width="7.13" d="M435.45+512.1C442.65+504.7+451.2+499.25+461.1+495.75C471+492.25+481.05+490.5+491.25+490.5C512.05+490.5+527.05+495.4+536.25+505.2C545.45+515+550.05+529.9+550.05+549.9L550.05+610.2C550.05+614.2+550.25+618.35+550.65+622.65C551.05+626.95+551.55+630.9+552.15+634.5L529.65+634.5C528.85+631.3+528.4+627.75+528.3+623.85C528.2+619.95+528.15+616.5+528.15+613.5L527.55+613.5C522.95+620.7+516.8+626.6+509.1+631.2C501.4+635.8+492.15+638.1+481.35+638.1C474.15+638.1+467.4+637.2+461.1+635.4C454.8+633.6+449.3+630.95+444.6+627.45C439.9+623.95+436.15+619.6+433.35+614.4C430.55+609.2+429.15+603.2+429.15+596.4C429.15+584.8+432.15+575.7+438.15+569.1C444.15+562.5+451.6+557.6+460.5+554.4C469.4+551.2+479+549.2+489.3+548.4C499.6+547.6+509.05+547.2+517.65+547.2L526.65+547.2L526.65+543C526.65+532.8+523.6+525.1+517.5+519.9C511.4+514.7+502.85+512.1+491.85+512.1C484.25+512.1+476.8+513.35+469.5+515.85C462.2+518.35+455.75+522.2+450.15+527.4L435.45+512.1ZM503.25+567C488.25+567+476.35+569.1+467.55+573.3C458.75+577.5+454.35+584.4+454.35+594C454.35+602.8+457.3+609.05+463.2+612.75C469.1+616.45+476.45+618.3+485.25+618.3C492.05+618.3+498+617.15+503.1+614.85C508.2+612.55+512.45+609.5+515.85+605.7C519.25+601.9+521.85+597.45+523.65+592.35C525.45+587.25+526.45+581.8+526.65+576L526.65+567L503.25+567Z" fill="#000000" stroke-linecap="butt" fill-opacity="0.357939" opacity="1" stroke-linejoin="miter"/>
<path stroke="#000000" stroke-opacity="0.425974" stroke-width="7.13" d="M692.85+529.2C687.85+523.2+682.45+518.85+676.65+516.15C670.85+513.45+664.45+512.1+657.45+512.1C649.65+512.1+642.75+513.45+636.75+516.15C630.75+518.85+625.8+522.6+621.9+527.4C618+532.2+615.05+537.75+613.05+544.05C611.05+550.35+610.05+557.1+610.05+564.3C610.05+571.5+611.2+578.25+613.5+584.55C615.8+590.85+619+596.4+623.1+601.2C627.2+606+632.15+609.75+637.95+612.45C643.75+615.15+650.25+616.5+657.45+616.5C672.85+616.5+684.75+610.7+693.15+599.1L710.55+615.6C703.75+623.4+695.75+629.1+686.55+632.7C677.35+636.3+667.65+638.1+657.45+638.1C646.65+638.1+636.75+636.3+627.75+632.7C618.75+629.1+611.1+624+604.8+617.4C598.5+610.8+593.6+603+590.1+594C586.6+585+584.85+575.1+584.85+564.3C584.85+553.7+586.6+543.9+590.1+534.9C593.6+525.9+598.55+518.1+604.95+511.5C611.35+504.9+619+499.75+627.9+496.05C636.8+492.35+646.65+490.5+657.45+490.5C667.85+490.5+677.7+492.3+687+495.9C696.3+499.5+704.45+505.1+711.45+512.7L692.85+529.2Z" fill="#000000" stroke-linecap="butt" fill-opacity="0.357939" opacity="1" stroke-linejoin="miter"/>
<path stroke="#000000" stroke-opacity="0.425974" stroke-width="7.13" d="M862.95+609C854.55+619.8+845.35+627.35+835.35+631.65C825.35+635.95+813.75+638.1+800.55+638.1C789.55+638.1+779.65+636.15+770.85+632.25C762.05+628.35+754.6+623.1+748.5+616.5C742.4+609.9+737.7+602.1+734.4+593.1C731.1+584.1+729.45+574.5+729.45+564.3C729.45+553.5+731.25+543.55+734.85+534.45C738.45+525.35+743.45+517.55+749.85+511.05C756.25+504.55+763.85+499.5+772.65+495.9C781.45+492.3+791.05+490.5+801.45+490.5C811.25+490.5+820.25+492.15+828.45+495.45C836.65+498.75+843.7+503.55+849.6+509.85C855.5+516.15+860.05+523.85+863.25+532.95C866.45+542.05+868.05+552.4+868.05+564L868.05+571.5L754.65+571.5C755.05+577.5+756.5+583.25+759+588.75C761.5+594.25+764.75+599.05+768.75+603.15C772.75+607.25+777.45+610.5+782.85+612.9C788.25+615.3+794.15+616.5+800.55+616.5C810.75+616.5+819.35+614.7+826.35+611.1C833.35+607.5+839.65+602.2+845.25+595.2L862.95+609ZM842.85+551.7C842.45+539.7+838.55+530.1+831.15+522.9C823.75+515.7+813.55+512.1+800.55+512.1C787.55+512.1+777.05+515.7+769.05+522.9C761.05+530.1+756.25+539.7+754.65+551.7L842.85+551.7Z" fill="#000000" stroke-linecap="butt" fill-opacity="0.357939" opacity="1" stroke-linejoin="miter"/>
<path stroke="#000000" stroke-opacity="0.425974" stroke-width="7.13" d="M904.35+407.7L927.75+407.7L927.75+513.6L928.35+513.6C929.95+510.8+932.15+508.05+934.95+505.35C937.75+502.65+941.1+500.2+945+498C948.9+495.8+953.25+494+958.05+492.6C962.85+491.2+967.95+490.5+973.35+490.5C982.55+490.5+990.5+491.9+997.2+494.7C1003.9+497.5+1009.45+501.4+1013.85+506.4C1018.25+511.4+1021.5+517.45+1023.6+524.55C1025.7+531.65+1026.75+539.4+1026.75+547.8L1026.75+634.5L1003.35+634.5L1003.35+550.2C1003.35+538.4+1000.75+529.1+995.55+522.3C990.35+515.5+982.25+512.1+971.25+512.1C963.65+512.1+957.1+513.4+951.6+516C946.1+518.6+941.6+522.3+938.1+527.1C934.6+531.9+932+537.6+930.3+544.2C928.6+550.8+927.75+558.1+927.75+566.1L927.75+634.5L904.35+634.5L904.35+407.7Z" fill="#000000" stroke-linecap="butt" fill-opacity="0.357939" opacity="1" stroke-linejoin="miter"/>
<path stroke="#000000" stroke-opacity="0.425974" stroke-width="7.13" d="M1063.05+564.3C1063.05+553.3+1064.95+543.3+1068.75+534.3C1072.55+525.3+1077.75+517.55+1084.35+511.05C1090.95+504.55+1098.85+499.5+1108.05+495.9C1117.25+492.3+1127.25+490.5+1138.05+490.5C1148.85+490.5+1158.85+492.3+1168.05+495.9C1177.25+499.5+1185.15+504.55+1191.75+511.05C1198.35+517.55+1203.55+525.3+1207.35+534.3C1211.15+543.3+1213.05+553.3+1213.05+564.3C1213.05+575.3+1211.15+585.3+1207.35+594.3C1203.55+603.3+1198.35+611.05+1191.75+617.55C1185.15+624.05+1177.25+629.1+1168.05+632.7C1158.85+636.3+1148.85+638.1+1138.05+638.1C1127.25+638.1+1117.25+636.3+1108.05+632.7C1098.85+629.1+1090.95+624.05+1084.35+617.55C1077.75+611.05+1072.55+603.3+1068.75+594.3C1064.95+585.3+1063.05+575.3+1063.05+564.3ZM1088.25+564.3C1088.25+571.7+1089.4+578.55+1091.7+584.85C1094+591.15+1097.35+596.65+1101.75+601.35C1106.15+606.05+1111.4+609.75+1117.5+612.45C1123.6+615.15+1130.45+616.5+1138.05+616.5C1145.65+616.5+1152.5+615.15+1158.6+612.45C1164.7+609.75+1169.95+606.05+1174.35+601.35C1178.75+596.65+1182.1+591.15+1184.4+584.85C1186.7+578.55+1187.85+571.7+1187.85+564.3C1187.85+556.9+1186.7+550.05+1184.4+543.75C1182.1+537.45+1178.75+531.95+1174.35+527.25C1169.95+522.55+1164.7+518.85+1158.6+516.15C1152.5+513.45+1145.65+512.1+1138.05+512.1C1130.45+512.1+1123.6+513.45+1117.5+516.15C1111.4+518.85+1106.15+522.55+1101.75+527.25C1097.35+531.95+1094+537.45+1091.7+543.75C1089.4+550.05+1088.25+556.9+1088.25+564.3Z" fill="#000000" stroke-linecap="butt" fill-opacity="0.357939" opacity="1" stroke-linejoin="miter"/>
<path stroke="#000000" stroke-opacity="0.425974" stroke-width="7.13" d="M1251.45+407.7L1274.85+407.7L1274.85+634.5L1251.45+634.5L1251.45+407.7Z" fill="#000000" stroke-linecap="butt" fill-opacity="0.357939" opacity="1" stroke-linejoin="miter"/>
<path stroke="#000000" stroke-opacity="0.425974" stroke-width="7.13" d="M1438.05+609.6L1437.45+609.6C1433.05+617.6+1426.1+624.35+1416.6+629.85C1407.1+635.35+1396.05+638.1+1383.45+638.1C1373.65+638.1+1364.45+636.25+1355.85+632.55C1347.25+628.85+1339.8+623.7+1333.5+617.1C1327.2+610.5+1322.25+602.7+1318.65+593.7C1315.05+584.7+1313.25+574.9+1313.25+564.3C1313.25+553.7+1315.05+543.9+1318.65+534.9C1322.25+525.9+1327.25+518.1+1333.65+511.5C1340.05+504.9+1347.8+499.75+1356.9+496.05C1366+492.35+1376.05+490.5+1387.05+490.5C1397.25+490.5+1406.6+492.6+1415.1+496.8C1423.6+501+1431.05+506.9+1437.45+514.5L1438.05+514.5L1438.05+407.7L1461.45+407.7L1461.45+634.5L1438.05+634.5L1438.05+609.6ZM1438.05+564.3C1438.05+556.9+1436.9+550.05+1434.6+543.75C1432.3+537.45+1428.95+531.95+1424.55+527.25C1420.15+522.55+1414.9+518.85+1408.8+516.15C1402.7+513.45+1395.85+512.1+1388.25+512.1C1380.65+512.1+1373.8+513.45+1367.7+516.15C1361.6+518.85+1356.35+522.55+1351.95+527.25C1347.55+531.95+1344.2+537.45+1341.9+543.75C1339.6+550.05+1338.45+556.9+1338.45+564.3C1338.45+571.7+1339.6+578.55+1341.9+584.85C1344.2+591.15+1347.55+596.65+1351.95+601.35C1356.35+606.05+1361.6+609.75+1367.7+612.45C1373.8+615.15+1380.65+616.5+1388.25+616.5C1395.85+616.5+1402.7+615.15+1408.8+612.45C1414.9+609.75+1420.15+606.05+1424.55+601.35C1428.95+596.65+1432.3+591.15+1434.6+584.85C1436.9+578.55+1438.05+571.7+1438.05+564.3Z" fill="#000000" stroke-linecap="butt" fill-opacity="0.357939" opacity="1" stroke-linejoin="miter"/>
<path stroke="#000000" stroke-opacity="0.425974" stroke-width="7.13" d="M1630.05+609C1621.65+619.8+1612.45+627.35+1602.45+631.65C1592.45+635.95+1580.85+638.1+1567.65+638.1C1556.65+638.1+1546.75+636.15+1537.95+632.25C1529.15+628.35+1521.7+623.1+1515.6+616.5C1509.5+609.9+1504.8+602.1+1501.5+593.1C1498.2+584.1+1496.55+574.5+1496.55+564.3C1496.55+553.5+1498.35+543.55+1501.95+534.45C1505.55+525.35+1510.55+517.55+1516.95+511.05C1523.35+504.55+1530.95+499.5+1539.75+495.9C1548.55+492.3+1558.15+490.5+1568.55+490.5C1578.35+490.5+1587.35+492.15+1595.55+495.45C1603.75+498.75+1610.8+503.55+1616.7+509.85C1622.6+516.15+1627.15+523.85+1630.35+532.95C1633.55+542.05+1635.15+552.4+1635.15+564L1635.15+571.5L1521.75+571.5C1522.15+577.5+1523.6+583.25+1526.1+588.75C1528.6+594.25+1531.85+599.05+1535.85+603.15C1539.85+607.25+1544.55+610.5+1549.95+612.9C1555.35+615.3+1561.25+616.5+1567.65+616.5C1577.85+616.5+1586.45+614.7+1593.45+611.1C1600.45+607.5+1606.75+602.2+1612.35+595.2L1630.05+609ZM1609.95+551.7C1609.55+539.7+1605.65+530.1+1598.25+522.9C1590.85+515.7+1580.65+512.1+1567.65+512.1C1554.65+512.1+1544.15+515.7+1536.15+522.9C1528.15+530.1+1523.35+539.7+1521.75+551.7L1609.95+551.7Z" fill="#000000" stroke-linecap="butt" fill-opacity="0.357939" opacity="1" stroke-linejoin="miter"/>
<path stroke="#000000" stroke-opacity="0.425974" stroke-width="7.13" d="M1671.45+527.4C1671.45+521+1671.25+515+1670.85+509.4C1670.45+503.8+1670.25+498.7+1670.25+494.1L1692.45+494.1C1692.45+497.9+1692.55+501.7+1692.75+505.5C1692.95+509.3+1693.05+513.2+1693.05+517.2L1693.65+517.2C1695.25+513.8+1697.5+510.5+1700.4+507.3C1703.3+504.1+1706.75+501.25+1710.75+498.75C1714.75+496.25+1719.25+494.25+1724.25+492.75C1729.25+491.25+1734.65+490.5+1740.45+490.5C1742.05+490.5+1743.65+490.6+1745.25+490.8C1746.85+491+1748.45+491.4+1750.05+492L1748.55+515.7C1744.55+514.5+1740.35+513.9+1735.95+513.9C1721.55+513.9+1711.1+518.55+1704.6+527.85C1698.1+537.15+1694.85+549.9+1694.85+566.1L1694.85+634.5L1671.45+634.5L1671.45+527.4Z" fill="#000000" stroke-linecap="butt" fill-opacity="0.357939" opacity="1" stroke-linejoin="miter"/>
</g>
</svg>
